<?xml version="1.0"?><svg width="640" height="480" xmlns="http://www.w3.org/2000/svg">
 <title>underline</title>
 <metadata id="metadata15">image/svg+xml</metadata>
 <g>
  <title>Layer 1</title>
  <g opacity="0.55" id="svg_1">
   <path fill="#7f3f00" fill-rule="evenodd" stroke-width="1px" id="path3195" d="m97.212624,71.880783c12.480209,-2.559593 18.020744,-6.675072 18.777679,-12.149097c1.090744,-7.963902 -18.867699,-11.617832 -29.120888,-8.426506c-6.17131,1.920868 -14.303635,6.697369 -14.752686,12.382332c0.938828,13.077732 13.770721,19.099194 30.055771,21.049999c31.595871,3.785004 84.418365,-21.50597 124.781555,-25.835438c41.515457,-4.453026 58.29686,6.539486 67.767166,14.81506c-19.726105,-9.066292 -43.154877,-11.155609 -62.004639,-9.131538c-43.249969,4.644211 -83.435776,30.569016 -130.548965,26.819901c-23.932587,-2.454414 -43.388172,-15.321251 -37.133408,-30.503914c9.832306,-21.224152 47.964806,-17.768642 53.721489,-6.407455c5.799644,11.445847 -8.702629,18.13649 -21.543076,17.386658z"/>
   <path fill="#7f3f00" fill-rule="evenodd" stroke-width="1px" d="m307.488159,80.572548c-69.362885,-23.302967 -95.993118,3.59787 -79.171082,20.167419c-8.244781,-17.644135 11.537079,-24.613716 30.128967,-24.232521c31.300415,0.6418 57.91153,12.973969 69.136444,16.139709l-20.09433,-12.074608z" id="path3199"/>
   <path fill="#7f3f00" fill-rule="evenodd" stroke-width="1px" d="m348.244141,80.257912c69.362823,-23.30302 99.308258,3.912506 82.486206,20.482056c8.24472,-17.644135 -11.53714,-24.613716 -30.129059,-24.232521c-31.300354,0.6418 -55.069855,10.142159 -66.294891,15.825096l13.937744,-12.074631z" id="path3203"/>
   <path fill="#7f3f00" fill-rule="evenodd" stroke-width="1px" d="m71.6035,72.904053c-41.210709,-23.303013 -72.082501,11.325272 -37.683495,17.548141c-11.144014,-5.039413 -11.912882,-13.201401 -4.798485,-17.631195c8.593781,-3.801849 19.305111,-3.026878 29.806976,0.787659c9.374962,4.055794 16.534828,9.691246 20.737679,11.686279l-8.062675,-12.390884z" id="path3205"/>
   <path fill="#7f3f00" fill-rule="evenodd" stroke-width="1px" id="path3207" d="m552.415466,74.397934c-12.480347,-2.55957 -18.020935,-6.675072 -18.777832,-12.14912c-1.090698,-7.963882 18.867676,-11.617805 29.12085,-8.426479c6.171387,1.920887 14.303772,6.697384 14.752686,12.382332c-0.938721,13.077682 -13.770691,19.099159 -30.055786,21.049995c-31.595825,3.785004 -84.418243,-21.505951 -124.781494,-25.835445c-41.515503,-4.453014 -58.296875,6.539486 -67.767242,14.81506c19.726166,-9.066277 43.154999,-11.155594 62.00473,-9.131508c43.249908,4.644203 83.435638,30.569016 130.54895,26.81987c23.932617,-2.454407 43.388184,-15.321243 37.133362,-30.503906c-9.832275,-21.224129 -47.964722,-17.76862 -53.721436,-6.407463c-5.799683,11.445854 8.702576,18.13649 21.543213,17.386665z"/>
   <path fill="#7f3f00" fill-rule="evenodd" stroke-width="1px" d="m580.300232,74.665184c41.210693,-23.302967 64.542419,4.311958 45.826782,13.740921c7.805603,-10.860603 -3.462952,-17.870949 -14.509033,-17.4897c-18.596619,0.6418 -32.711304,12.973969 -39.380432,16.139687l8.062683,-12.390907z" id="path3209"/>
  </g>
 </g>
</svg>